<svg fill="#FFFFFF" xmlns="http://www.w3.org/2000/svg" xmlns:xlink="http://www.w3.org/1999/xlink" version="1.1" viewBox="0 0 100 100" preserveAspectRatio="xMidYMid slice" style="enable-background:new 0 0 100 100;" xml:space="preserve">
	<path d="M97.8,49.7L97.2,51l-40.9,3.1l0-0.1l-0.6-0.8l0.2-1.7l10.2-1.8l0.3-0.5l-10.6,1.2c-0.5-3.4-3.3-4.4-4.6-4.7L50,38.8  l-1.2,6.8c-1.3,0.3-4.1,1.3-4.6,4.7l-10.6-1.2l0.3,0.5l10.2,1.8l0.2,1.7l-0.6,0.8l0,0.1L2.8,51l-0.6-1.3v2.1l13.9,1.5  c0,0,0,0.1,0,0.1v0.7c0,0.4,0.3,0.7,0.7,0.7s0.7-0.3,0.7-0.7v-0.6l8.4,0.9c0,0,0,0.1,0,0.1v0.7c0,0.4,0.3,0.7,0.7,0.7  s0.7-0.3,0.7-0.7v-0.7l5.8,0.6v0.5c-1,0.4-1.8,1.5-1.8,2.7c0,1.6,1.3,2.9,2.9,2.9s2.9-1.3,2.9-2.9c0-1.2-0.7-2.2-1.8-2.7v-0.2l9.2,1  l0.6,1.8H50h4.9l0.6-1.8l9.2-1v0.2c-1,0.4-1.8,1.5-1.8,2.7c0,1.6,1.3,2.9,2.9,2.9s2.9-1.3,2.9-2.9c0-1.2-0.7-2.2-1.8-2.7v-0.5  l5.8-0.6v0.7c0,0.4,0.3,0.7,0.7,0.7s0.7-0.3,0.7-0.7v-0.7c0,0,0-0.1,0-0.1l8.4-0.9v0.6c0,0.4,0.3,0.7,0.7,0.7s0.7-0.3,0.7-0.7v-0.7  c0,0,0-0.1,0-0.1l13.9-1.5V49.7z M54.4,51.7h-4.3h-0.3h-4.3v-0.4c0-2,1.8-2.2,1.8-2.2h2.6h0.3h2.6c0,0,1.8,0.1,1.8,2.2V51.7z"></path>
</svg>