<?xml version="1.0" standalone="no"?>
<!DOCTYPE svg PUBLIC "-//W3C//DTD SVG 20010904//EN"
 "http://www.w3.org/TR/2001/REC-SVG-20010904/DTD/svg10.dtd">
<svg version="1.0" xmlns="http://www.w3.org/2000/svg"
 width="700.000000pt" height="700.000000pt" viewBox="0 0 700.000000 700.000000"
 preserveAspectRatio="xMidYMid meet">
<metadata>
Created by potrace 1.11, written by Peter Selinger 2001-2013
</metadata>
<g transform="translate(0.000000,700.000000) scale(0.100000,-0.100000)"
fill="#000000" stroke="none">
<path d="M703 5550 c-348 -92 -582 -382 -584 -725 -2 -315 175 -586 461 -707
105 -45 163 -57 299 -64 140 -7 251 -28 379 -71 542 -183 1052 -710 1282
-1323 17 -47 38 -103 47 -125 8 -22 16 -47 18 -55 2 -8 17 -64 33 -125 25 -95
46 -187 57 -260 2 -11 8 -51 14 -90 15 -91 19 -143 26 -295 9 -216 16 -304 26
-345 61 -240 235 -440 459 -529 127 -51 302 -67 432 -40 187 39 369 162 475
320 92 138 129 267 132 466 3 142 15 327 25 386 2 9 7 39 10 65 4 27 9 57 11
67 2 9 6 33 9 51 24 143 92 375 156 534 174 426 398 726 770 1029 58 47 224
148 320 194 197 95 356 136 568 147 133 6 214 26 319 75 265 124 435 389 433
675 0 131 -8 173 -52 284 -94 238 -299 411 -553 467 -58 13 -379 13 -415 1 -8
-3 -40 -8 -70 -11 -143 -14 -441 -85 -565 -136 -11 -4 -54 -20 -95 -36 -41
-15 -107 -42 -146 -61 -40 -18 -74 -33 -77 -33 -23 0 -496 -283 -517 -310 -3
-3 -21 -17 -40 -30 -44 -30 -36 -24 -155 -122 -101 -83 -348 -324 -443 -432
-29 -32 -96 -117 -150 -187 -53 -70 -100 -128 -104 -129 -4 0 -22 21 -39 48
-142 208 -451 538 -664 709 -118 95 -158 125 -245 184 -180 124 -441 268 -605
334 -38 15 -83 33 -100 40 -45 20 -273 92 -312 99 -10 2 -36 9 -58 15 -22 5
-53 13 -70 15 -16 3 -39 8 -50 10 -20 4 -127 20 -200 31 -22 3 -116 8 -210 10
-143 3 -181 1 -242 -15z"/>
</g>
</svg>
